# xmcd
#
# Track frame offsets:
#	150
#	15872
#	34332
#	47072
#	67632
#	83337
#	97307
#	112327
#	129525
#	142275
#	157515
#	170160
#	180477
#
# Disc length: 2597 seconds
#
# Revision: 0
# Processed by: cddbd v1.5.1PL2 Copyright (c) Steve Scherf et al.
# Submitted via: audiograbber 1.83.01
#
DISCID=a60a230d
DTITLE=Rolf Raggenbass - Down The Road
DYEAR=1995
DGENRE=Country
TTITLE0=That's Why My Baby Loves Me
TTITLE1=Divided Attention
TTITLE2=I Ain't Ever Gonna Let You Go
TTITLE3=Livin' Together But Worlds Apart
TTITLE4=Nothin' To Lose But The Blues
TTITLE5=Stop Loving Me
TTITLE6=Down The Road
TTITLE7=Thank You, Mr. Jukebox
TTITLE8=Like Country People Do
TTITLE9=She Was A Cowboy's Dream
TTITLE10=You' Ve Got To Find Love On Your Own
TTITLE11=The Ricochet
TTITLE12=Give Back A Little
EXTD=
EXTT0=
EXTT1=
EXTT2=
EXTT3=
EXTT4=
EXTT5=
EXTT6=
EXTT7=
EXTT8=
EXTT9=
EXTT10=
EXTT11=
EXTT12=
PLAYORDER=
